<?xml version="1.0" encoding="UTF-8" standalone="no"?>
<!-- Created with Inkscape (http://www.inkscape.org/) -->

<svg
   xmlns:dc="http://purl.org/dc/elements/1.1/"
   xmlns:cc="http://creativecommons.org/ns#"
   xmlns:rdf="http://www.w3.org/1999/02/22-rdf-syntax-ns#"
   xmlns:svg="http://www.w3.org/2000/svg"
   xmlns="http://www.w3.org/2000/svg"
   xmlns:xlink="http://www.w3.org/1999/xlink"
   xmlns:sodipodi="http://sodipodi.sourceforge.net/DTD/sodipodi-0.dtd"
   xmlns:inkscape="http://www.inkscape.org/namespaces/inkscape"
   width="1200"
   height="350"
   viewBox="0 0 317.49998 92.604172"
   version="1.1"
   id="svg8"
   inkscape:version="0.92.4 (f8dce91, 2019-08-02)"
   sodipodi:docname="weatherapplong.svg">
  <defs
     id="defs2">
    <linearGradient
       inkscape:collect="always"
       id="linearGradient822">
      <stop
         style="stop-color:#a0d6fc;stop-opacity:1;"
         offset="0"
         id="stop818" />
      <stop
         style="stop-color:#1399f8;stop-opacity:1"
         offset="1"
         id="stop820" />
    </linearGradient>
    <linearGradient
       inkscape:collect="always"
       xlink:href="#linearGradient822"
       id="linearGradient824"
       x1="60.826553"
       y1="34.095989"
       x2="61.996716"
       y2="93.905403"
       gradientUnits="userSpaceOnUse"
       gradientTransform="matrix(-0.40930419,0,0,-0.40930419,38.088354,276.21692)" />
    <linearGradient
       gradientTransform="matrix(-0.40930419,0,0,-0.40930419,60.545832,276.59379)"
       inkscape:collect="always"
       xlink:href="#linearGradient822"
       id="linearGradient824-3"
       x1="60.826553"
       y1="34.095989"
       x2="61.996716"
       y2="93.905403"
       gradientUnits="userSpaceOnUse" />
    <linearGradient
       gradientTransform="matrix(-0.40930419,0,0,-0.40930419,49.719704,302.3844)"
       inkscape:collect="always"
       xlink:href="#linearGradient822"
       id="linearGradient824-35"
       x1="60.826553"
       y1="34.095989"
       x2="61.996716"
       y2="93.905403"
       gradientUnits="userSpaceOnUse" />
  </defs>
  <sodipodi:namedview
     id="base"
     pagecolor="#ffffff"
     bordercolor="#666666"
     borderopacity="1.0"
     inkscape:pageopacity="0.0"
     inkscape:pageshadow="2"
     inkscape:zoom="1.16375"
     inkscape:cx="526.36046"
     inkscape:cy="229.90778"
     inkscape:document-units="mm"
     inkscape:current-layer="g919"
     showgrid="false"
     units="px"
     inkscape:window-width="1883"
     inkscape:window-height="1145"
     inkscape:window-x="37"
     inkscape:window-y="27"
     inkscape:window-maximized="1" />
  <metadata
     id="metadata5">
    <rdf:RDF>
      <cc:Work
         rdf:about="">
        <dc:format>image/svg+xml</dc:format>
        <dc:type
           rdf:resource="http://purl.org/dc/dcmitype/StillImage" />
        <dc:title></dc:title>
      </cc:Work>
    </rdf:RDF>
  </metadata>
  <g
     inkscape:label="Layer 1"
     inkscape:groupmode="layer"
     id="layer1"
     transform="translate(0,-204.39582)">
    <g
       id="g919"
       transform="matrix(1.5099193,0,0,1.5099193,-0.84200995,-148.06131)">
      <path
         sodipodi:nodetypes="scsss"
         inkscape:connector-curvature="0"
         id="path815"
         d="m 21.560051,245.50494 c 0,4.55595 -8.36826,16.75635 -8.36826,16.75635 0,0 -8.4872412,-12.2004 -8.4872412,-16.75635 0,-4.55596 3.7732317,-8.24929 8.4277482,-8.24929 4.654522,0 8.427752,3.69333 8.427753,8.24929 z"
         style="opacity:0.97000002;fill:url(#linearGradient824);fill-opacity:1;stroke:none;stroke-width:0.52145356;stroke-linecap:round;stroke-miterlimit:4;stroke-dasharray:none;stroke-opacity:1" />
      <path
         sodipodi:nodetypes="scsss"
         inkscape:connector-curvature="0"
         id="path815-5"
         d="m 44.017529,245.88181 c 0,4.55595 -8.36826,16.75636 -8.36826,16.75636 0,0 -8.487242,-12.20041 -8.487242,-16.75636 0,-4.55596 3.773236,-8.24928 8.427753,-8.24928 4.654518,0 8.427749,3.69332 8.427749,8.24928 z"
         style="opacity:0.97000002;fill:url(#linearGradient824-3);fill-opacity:1;stroke:none;stroke-width:0.52164376;stroke-linecap:round;stroke-miterlimit:4;stroke-dasharray:none;stroke-opacity:1" />
      <path
         sodipodi:nodetypes="scsss"
         inkscape:connector-curvature="0"
         id="path815-9"
         d="m 33.191404,271.67242 c 0,4.55595 -8.36826,16.75635 -8.36826,16.75635 0,0 -8.48724,-12.2004 -8.48724,-16.75635 0,-4.55596 3.77324,-8.24928 8.42775,-8.24928 4.65452,0 8.42775,3.69332 8.42775,8.24928 z"
         style="opacity:0.97000002;fill:url(#linearGradient824-35);fill-opacity:1;stroke:none;stroke-width:0.52164376;stroke-linecap:round;stroke-miterlimit:4;stroke-dasharray:none;stroke-opacity:1" />
      <g
         id="text863"
         style="font-style:normal;font-weight:normal;font-size:3.52777767px;line-height:1.25;font-family:sans-serif;letter-spacing:0px;word-spacing:0px;fill:#000000;fill-opacity:1;stroke:none;stroke-width:0.26458332"
         aria-label="Weather App"
         transform="matrix(1.2858738,0,0,1.2858738,-34.358117,-76.700743)">
        <path
           id="path865"
           style="font-style:normal;font-variant:normal;font-weight:normal;font-stretch:normal;font-size:8.46666622px;font-family:Sawasdee;-inkscape-font-specification:Sawasdee;stroke-width:0.66526645"
           d="m 61.194363,257.05643 h 0.925135 l 4.563312,12.83756 4.469759,-13.02466 4.459364,13.02466 4.521733,-12.83756 h 0.9979 l -5.519633,15.69614 -4.438573,-12.95191 -4.448969,12.95191 z"
           inkscape:connector-curvature="0" />
        <path
           id="path867"
           style="font-style:normal;font-variant:normal;font-weight:normal;font-stretch:normal;font-size:8.46666622px;font-family:Sawasdee;-inkscape-font-specification:Sawasdee;stroke-width:0.66526645"
           d="m 82.285388,266.41175 h 7.660959 q -0.291054,-1.56963 -1.372112,-2.58831 -1.081058,-1.01868 -2.473959,-1.01868 -1.382506,0 -2.463565,1.01868 -1.070663,1.01868 -1.351323,2.58831 z m 8.679647,0.88356 H 82.13986 q 0,1.86065 1.164217,3.16001 1.164217,1.29934 2.754618,1.29934 1.049875,0 2.058169,-0.56131 1.008294,-0.56131 1.538429,-1.50725 l 0.821188,0.46777 q -0.634082,1.13304 -1.871063,1.86065 -1.236978,0.71726 -2.546723,0.71726 -1.320136,0 -2.432378,-0.73802 -1.101847,-0.73805 -1.73593,-1.98542 -0.623687,-1.25777 -0.623687,-2.71303 0,-1.4449 0.634082,-2.69226 0.644477,-1.24737 1.756718,-1.98542 1.122637,-0.7484 2.442776,-0.7484 1.247375,0 2.318036,0.67566 1.081059,0.66526 1.746327,1.7983 0.665265,1.13303 0.779607,2.48434 z"
           inkscape:connector-curvature="0" />
        <path
           id="path869"
           style="font-style:normal;font-variant:normal;font-weight:normal;font-stretch:normal;font-size:8.46666622px;font-family:Sawasdee;-inkscape-font-specification:Sawasdee;stroke-width:0.66526645"
           d="m 101.76522,272.57586 h -0.9979 q -0.18709,-0.59251 -0.18709,-1.39292 v -0.82118 q -0.74843,1.03948 -1.798302,1.71515 -1.03948,0.67566 -2.203697,0.67566 -0.841977,0 -1.507243,-0.25988 -0.654871,-0.27025 -1.03948,-0.70685 -0.384606,-0.43657 -0.582106,-0.92512 -0.197506,-0.49896 -0.197506,-1.0083 0,-0.53013 0.155917,-0.97711 0.166328,-0.44699 0.415793,-0.75882 0.25987,-0.32225 0.67566,-0.57173 0.426187,-0.25986 0.810793,-0.41578 0.395004,-0.1662 0.977111,-0.28065 0.58211,-0.12472 1.008294,-0.17676 0.426187,-0.0624 1.06027,-0.0935 0.634082,-0.0312 0.997899,-0.0312 0.374212,-0.0101 0.945927,-0.0101 h 0.28066 q -0.052,-1.71514 -1.018692,-2.73385 -0.956319,-1.01868 -2.214089,-1.01868 -0.738029,0 -1.444875,0.38461 -0.696452,0.3846 -1.216192,1.12265 l -0.73803,-0.48858 q 0.634082,-0.97709 1.528034,-1.46566 0.893953,-0.48855 1.871063,-0.48855 0.790003,0 1.517638,0.32225 0.738032,0.31183 1.320143,0.89394 0.5821,0.57172 0.93553,1.47607 0.36381,0.90433 0.38461,1.9958 v 4.64645 q 0,0.90435 0.25986,1.39292 z m -5.186999,-0.74843 q 1.1954,0 2.318039,-0.80041 1.12264,-0.80038 1.68396,-1.82947 v -1.9958 q -0.48856,0.0101 -0.821194,0.0201 -0.322237,0.01 -0.893952,0.052 -0.561318,0.0312 -0.956319,0.0832 -0.395001,0.0415 -0.925136,0.14558 -0.51974,0.10385 -0.883557,0.23912 -0.363818,0.12472 -0.758819,0.33263 -0.384609,0.19763 -0.623688,0.44698 -0.239093,0.23912 -0.395003,0.58211 -0.145533,0.34304 -0.145533,0.74844 0,0.74841 0.623687,1.36172 0.623688,0.61328 1.777508,0.61328 z"
           inkscape:connector-curvature="0" />
        <path
           id="path871"
           style="font-style:normal;font-variant:normal;font-weight:normal;font-stretch:normal;font-size:8.46666622px;font-family:Sawasdee;-inkscape-font-specification:Sawasdee;stroke-width:0.66526645"
           d="m 105.90235,272.57586 h -0.93553 v -9.61519 h -0.92514 v -0.92514 h 0.92514 v -2.49473 h 0.93553 v 2.49473 h 2.91054 l -0.31185,0.92514 h -2.59869 z"
           inkscape:connector-curvature="0" />
        <path
           id="path873"
           style="font-style:normal;font-variant:normal;font-weight:normal;font-stretch:normal;font-size:8.46666622px;font-family:Sawasdee;-inkscape-font-specification:Sawasdee;stroke-width:0.66526645"
           d="m 110.70474,272.57586 v -15.51943 h 0.93553 v 7.97281 q 0.54053,-1.26816 1.56962,-2.2141 1.02908,-0.94591 1.9854,-0.94591 1.06027,0 1.7879,0.59249 0.73803,0.59251 1.06027,1.51763 0.33264,0.92515 0.33264,2.08936 v 6.50715 h -0.91475 v -6.50715 q 0,-0.57172 -0.11433,-1.10185 -0.10394,-0.53014 -0.34302,-1.03948 -0.2391,-0.50934 -0.71724,-0.81079 -0.46777,-0.31183 -1.11225,-0.31183 -0.61329,0 -1.27855,0.47816 -0.65488,0.47816 -1.14343,1.1746 -0.47816,0.68605 -0.8004,1.46566 -0.31184,0.77961 -0.31184,1.37213 v 5.28055 z"
           inkscape:connector-curvature="0" />
        <path
           id="path875"
           style="font-style:normal;font-variant:normal;font-weight:normal;font-stretch:normal;font-size:8.46666622px;font-family:Sawasdee;-inkscape-font-specification:Sawasdee;stroke-width:0.66526645"
           d="m 122.40927,266.41175 h 7.66096 q -0.29105,-1.56963 -1.37211,-2.58831 -1.08106,-1.01868 -2.47396,-1.01868 -1.38251,0 -2.46356,1.01868 -1.07067,1.01868 -1.35133,2.58831 z m 8.67965,0.88356 h -8.82518 q 0,1.86065 1.16422,3.16001 1.16422,1.29934 2.75462,1.29934 1.04987,0 2.05817,-0.56131 1.00829,-0.56131 1.53843,-1.50725 l 0.82119,0.46777 q -0.63409,1.13304 -1.87107,1.86065 -1.23698,0.71726 -2.54672,0.71726 -1.32014,0 -2.43238,-0.73802 -1.10185,-0.73805 -1.73593,-1.98542 -0.62369,-1.25777 -0.62369,-2.71303 0,-1.4449 0.63409,-2.69226 0.64447,-1.24737 1.75671,-1.98542 1.12264,-0.7484 2.44278,-0.7484 1.24738,0 2.31804,0.67566 1.08105,0.66526 1.74632,1.7983 0.66527,1.13303 0.77961,2.48434 z"
           inkscape:connector-curvature="0" />
        <path
           id="path877"
           style="font-style:normal;font-variant:normal;font-weight:normal;font-stretch:normal;font-size:8.46666622px;font-family:Sawasdee;-inkscape-font-specification:Sawasdee;stroke-width:0.66526645"
           d="m 133.81235,262.03553 h 0.9979 q 0.19751,0.68607 0.19751,1.39292 v 1.30972 q 0.23909,-0.80038 1.11224,-1.66314 0.87316,-0.86279 1.75672,-1.2058 l 1.03948,0.73802 q -0.91474,0 -1.82949,0.64449 -0.90434,0.64446 -1.49684,1.71512 -0.58211,1.06027 -0.58211,2.1933 v 5.4157 h -0.93553 v -9.14741 q 0,-0.89397 -0.25987,-1.39292 z"
           inkscape:connector-curvature="0" />
        <path
           id="path879"
           style="font-style:normal;font-variant:normal;font-weight:normal;font-stretch:normal;font-size:8.46666622px;font-family:Sawasdee;-inkscape-font-specification:Sawasdee;stroke-width:0.66526645"
           d="m 150.4648,266.82753 h 6.25767 l -3.13923,-7.53621 z m 6.63188,0.93553 h -7.07885 l -1.97501,4.8128 h -0.9979 l 6.50714,-15.70653 6.52792,15.70653 h -0.9979 z"
           inkscape:connector-curvature="0" />
        <path
           id="path881"
           style="font-style:normal;font-variant:normal;font-weight:normal;font-stretch:normal;font-size:8.46666622px;font-family:Sawasdee;-inkscape-font-specification:Sawasdee;stroke-width:0.66526645"
           d="m 161.91986,262.03553 h 0.9979 q 0.19751,0.68607 0.19751,1.39292 v 1.30972 q 0.395,-1.09144 1.55922,-1.975 1.16421,-0.89394 2.34922,-0.89394 1.32014,0 2.42198,0.7484 1.10185,0.73805 1.72554,1.98542 0.63408,1.24736 0.63408,2.69226 0,1.45526 -0.63408,2.71303 -0.62369,1.24737 -1.72554,1.98542 -1.10184,0.73802 -2.42198,0.73802 -1.2058,0 -2.37002,-0.85238 -1.15381,-0.86276 -1.53842,-2.00618 v 7.91043 h -0.93553 v -14.3552 q 0,-0.89397 -0.25987,-1.39292 z m 2.34922,2.07897 q -1.15382,1.30975 -1.15382,3.18081 0,1.87106 1.15382,3.19119 1.15383,1.32013 2.75462,1.32013 1.58001,0 2.74423,-1.32013 1.16421,-1.33054 1.16421,-3.19119 0,-1.87106 -1.16421,-3.18081 -1.16422,-1.30974 -2.74423,-1.30974 -1.60079,0 -2.75462,1.30974 z"
           inkscape:connector-curvature="0" />
        <path
           id="path883"
           style="font-style:normal;font-variant:normal;font-weight:normal;font-stretch:normal;font-size:8.46666622px;font-family:Sawasdee;-inkscape-font-specification:Sawasdee;stroke-width:0.66526645"
           d="m 174.55993,262.03553 h 0.9979 q 0.1975,0.68607 0.1975,1.39292 v 1.30972 q 0.395,-1.09144 1.55922,-1.975 1.16422,-0.89394 2.34922,-0.89394 1.32014,0 2.42199,0.7484 1.10185,0.73805 1.72552,1.98542 0.63411,1.24736 0.63411,2.69226 0,1.45526 -0.63411,2.71303 -0.62367,1.24737 -1.72552,1.98542 -1.10185,0.73802 -2.42199,0.73802 -1.20579,0 -2.37001,-0.85238 -1.15382,-0.86276 -1.53843,-2.00618 v 7.91043 h -0.93553 v -14.3552 q 0,-0.89397 -0.25987,-1.39292 z m 2.34922,2.07897 q -1.15382,1.30975 -1.15382,3.18081 0,1.87106 1.15382,3.19119 1.15382,1.32013 2.75462,1.32013 1.58001,0 2.74422,-1.32013 1.16422,-1.33054 1.16422,-3.19119 0,-1.87106 -1.16422,-3.18081 -1.16421,-1.30974 -2.74422,-1.30974 -1.6008,0 -2.75462,1.30974 z"
           inkscape:connector-curvature="0" />
      </g>
    </g>
  </g>
</svg>
